<mxfile host="65bd71144e" modified="2021-03-03T16:59:14.643Z" agent="5.0 (Macintosh; Intel Mac OS X 10_15_7) AppleWebKit/537.36 (KHTML, like Gecko) Code/1.53.2 Chrome/87.0.4280.141 Electron/11.2.1 Safari/537.36" etag="5LDfKReJQZ4guXIxepE8" version="14.2.4" type="embed" pages="4">
    <diagram id="C5RBs43oDa-KdzZeNtuy" name="Page-1">
        <mxGraphModel dx="1383" dy="1846" grid="1" gridSize="10" guides="1" tooltips="1" connect="1" arrows="1" fold="1" page="1" pageScale="1" pageWidth="827" pageHeight="1169" math="0" shadow="0">
            <root>
                <mxCell id="WIyWlLk6GJQsqaUBKTNV-0"/>
                <mxCell id="WIyWlLk6GJQsqaUBKTNV-1" parent="WIyWlLk6GJQsqaUBKTNV-0"/>
                <mxCell id="DjFi4agtFW9Ws1jxnRte-5" style="edgeStyle=orthogonalEdgeStyle;rounded=0;orthogonalLoop=1;jettySize=auto;html=1;exitX=1;exitY=0.5;exitDx=0;exitDy=0;" edge="1" parent="WIyWlLk6GJQsqaUBKTNV-1" source="WIyWlLk6GJQsqaUBKTNV-7">
                    <mxGeometry relative="1" as="geometry">
                        <mxPoint x="450" y="210" as="targetPoint"/>
                    </mxGeometry>
                </mxCell>
                <mxCell id="WIyWlLk6GJQsqaUBKTNV-7" value="refil info" style="rounded=1;whiteSpace=wrap;html=1;fontSize=12;glass=0;strokeWidth=1;shadow=0;" parent="WIyWlLk6GJQsqaUBKTNV-1" vertex="1">
                    <mxGeometry x="180" y="190" width="120" height="40" as="geometry"/>
                </mxCell>
                <mxCell id="OaiwCacrU9OmBRE2hrBp-0" style="edgeStyle=orthogonalEdgeStyle;rounded=0;orthogonalLoop=1;jettySize=auto;html=1;exitX=0.5;exitY=1;exitDx=0;exitDy=0;" parent="WIyWlLk6GJQsqaUBKTNV-1" source="OaiwCacrU9OmBRE2hrBp-8" edge="1">
                    <mxGeometry relative="1" as="geometry">
                        <mxPoint x="239" y="20" as="sourcePoint"/>
                        <mxPoint x="241" y="60" as="targetPoint"/>
                        <Array as="points">
                            <mxPoint x="241" y="20"/>
                        </Array>
                    </mxGeometry>
                </mxCell>
                <mxCell id="JDcqy5tTRPsX78CX3u6c-1" value="Vet Staff" style="text;html=1;strokeColor=none;fillColor=none;align=center;verticalAlign=middle;whiteSpace=wrap;rounded=0;fontSize=17;" parent="WIyWlLk6GJQsqaUBKTNV-1" vertex="1">
                    <mxGeometry x="190" y="-30" width="80" height="20" as="geometry"/>
                </mxCell>
                <mxCell id="JDcqy5tTRPsX78CX3u6c-2" value="Vet Management App" style="text;html=1;strokeColor=none;fillColor=none;align=center;verticalAlign=middle;whiteSpace=wrap;rounded=0;fontSize=17;" parent="WIyWlLk6GJQsqaUBKTNV-1" vertex="1">
                    <mxGeometry x="410" y="-30" width="180" height="20" as="geometry"/>
                </mxCell>
                <mxCell id="DjFi4agtFW9Ws1jxnRte-6" style="edgeStyle=orthogonalEdgeStyle;rounded=0;orthogonalLoop=1;jettySize=auto;html=1;exitX=0.5;exitY=1;exitDx=0;exitDy=0;entryX=0.5;entryY=0;entryDx=0;entryDy=0;" edge="1" parent="WIyWlLk6GJQsqaUBKTNV-1" source="JDcqy5tTRPsX78CX3u6c-4" target="OaiwCacrU9OmBRE2hrBp-6">
                    <mxGeometry relative="1" as="geometry"/>
                </mxCell>
                <mxCell id="DjFi4agtFW9Ws1jxnRte-7" style="edgeStyle=orthogonalEdgeStyle;rounded=0;orthogonalLoop=1;jettySize=auto;html=1;exitX=1;exitY=0.5;exitDx=0;exitDy=0;" edge="1" parent="WIyWlLk6GJQsqaUBKTNV-1" source="JDcqy5tTRPsX78CX3u6c-4">
                    <mxGeometry relative="1" as="geometry">
                        <mxPoint x="590" y="210" as="targetPoint"/>
                    </mxGeometry>
                </mxCell>
                <mxCell id="JDcqy5tTRPsX78CX3u6c-4" value="Accepting Info and register animal to practice" style="rounded=1;whiteSpace=wrap;html=1;fontSize=12;glass=0;strokeWidth=1;shadow=0;" parent="WIyWlLk6GJQsqaUBKTNV-1" vertex="1">
                    <mxGeometry x="455" y="190" width="100" height="40" as="geometry"/>
                </mxCell>
                <mxCell id="DjFi4agtFW9Ws1jxnRte-0" style="edgeStyle=orthogonalEdgeStyle;rounded=0;orthogonalLoop=1;jettySize=auto;html=1;exitX=1;exitY=0.5;exitDx=0;exitDy=0;entryX=0;entryY=0.5;entryDx=0;entryDy=0;" edge="1" parent="WIyWlLk6GJQsqaUBKTNV-1" source="JDcqy5tTRPsX78CX3u6c-12" target="JDcqy5tTRPsX78CX3u6c-38">
                    <mxGeometry relative="1" as="geometry"/>
                </mxCell>
                <mxCell id="JDcqy5tTRPsX78CX3u6c-12" value="Begins registration process" style="rounded=1;whiteSpace=wrap;html=1;fontSize=12;glass=0;strokeWidth=1;shadow=0;" parent="WIyWlLk6GJQsqaUBKTNV-1" vertex="1">
                    <mxGeometry x="180" y="70" width="120" height="40" as="geometry"/>
                </mxCell>
                <mxCell id="JDcqy5tTRPsX78CX3u6c-14" value="" style="endArrow=none;html=1;fontSize=11;" parent="WIyWlLk6GJQsqaUBKTNV-1" edge="1">
                    <mxGeometry width="50" height="50" relative="1" as="geometry">
                        <mxPoint x="350" y="-40" as="sourcePoint"/>
                        <mxPoint x="350" y="330" as="targetPoint"/>
                    </mxGeometry>
                </mxCell>
                <mxCell id="OaiwCacrU9OmBRE2hrBp-5" style="edgeStyle=orthogonalEdgeStyle;rounded=0;orthogonalLoop=1;jettySize=auto;html=1;exitX=0.5;exitY=1;exitDx=0;exitDy=0;entryX=0.5;entryY=0;entryDx=0;entryDy=0;" parent="WIyWlLk6GJQsqaUBKTNV-1" source="JDcqy5tTRPsX78CX3u6c-38" edge="1" target="JDcqy5tTRPsX78CX3u6c-4">
                    <mxGeometry relative="1" as="geometry">
                        <mxPoint x="505" y="140" as="targetPoint"/>
                    </mxGeometry>
                </mxCell>
                <mxCell id="JDcqy5tTRPsX78CX3u6c-38" value="&lt;font color=&quot;#ffffff&quot;&gt;verifying mandatory fields&lt;/font&gt;" style="rounded=1;whiteSpace=wrap;html=1;fontSize=11;" parent="WIyWlLk6GJQsqaUBKTNV-1" vertex="1">
                    <mxGeometry x="450" y="70" width="110" height="40" as="geometry"/>
                </mxCell>
                <mxCell id="OaiwCacrU9OmBRE2hrBp-1" value="Veteneranian regsiters new animal to practice" style="text;html=1;strokeColor=none;fillColor=none;align=center;verticalAlign=middle;whiteSpace=wrap;rounded=0;fontSize=17;" parent="WIyWlLk6GJQsqaUBKTNV-1" vertex="1">
                    <mxGeometry x="120" y="-90" width="250" height="20" as="geometry"/>
                </mxCell>
                <mxCell id="OaiwCacrU9OmBRE2hrBp-2" value="(info ok)" style="text;html=1;strokeColor=none;fillColor=none;align=center;verticalAlign=middle;whiteSpace=wrap;rounded=0;" parent="WIyWlLk6GJQsqaUBKTNV-1" vertex="1">
                    <mxGeometry x="526.87" y="160" width="80" height="20" as="geometry"/>
                </mxCell>
                <mxCell id="DjFi4agtFW9Ws1jxnRte-4" style="edgeStyle=orthogonalEdgeStyle;rounded=0;orthogonalLoop=1;jettySize=auto;html=1;exitX=0;exitY=0.5;exitDx=0;exitDy=0;" edge="1" parent="WIyWlLk6GJQsqaUBKTNV-1" source="OaiwCacrU9OmBRE2hrBp-6">
                    <mxGeometry relative="1" as="geometry">
                        <mxPoint x="240" y="240" as="targetPoint"/>
                    </mxGeometry>
                </mxCell>
                <mxCell id="OaiwCacrU9OmBRE2hrBp-6" value="" style="rhombus;whiteSpace=wrap;html=1;shadow=0;fontFamily=Helvetica;fontSize=12;align=center;strokeWidth=1;spacing=6;spacingTop=-4;" parent="WIyWlLk6GJQsqaUBKTNV-1" vertex="1">
                    <mxGeometry x="483.12" y="280" width="43.75" height="40" as="geometry"/>
                </mxCell>
                <mxCell id="OaiwCacrU9OmBRE2hrBp-7" value="(else)" style="text;html=1;strokeColor=none;fillColor=none;align=center;verticalAlign=middle;whiteSpace=wrap;rounded=0;" parent="WIyWlLk6GJQsqaUBKTNV-1" vertex="1">
                    <mxGeometry x="510" y="290" width="80" height="20" as="geometry"/>
                </mxCell>
                <mxCell id="OaiwCacrU9OmBRE2hrBp-12" value="" style="ellipse;shape=doubleEllipse;whiteSpace=wrap;html=1;aspect=fixed;strokeWidth=2;" parent="WIyWlLk6GJQsqaUBKTNV-1" vertex="1">
                    <mxGeometry x="600" y="200" width="20" height="20" as="geometry"/>
                </mxCell>
                <mxCell id="OaiwCacrU9OmBRE2hrBp-8" value="" style="ellipse;whiteSpace=wrap;html=1;aspect=fixed;" parent="WIyWlLk6GJQsqaUBKTNV-1" vertex="1">
                    <mxGeometry x="230" y="10" width="20" height="20" as="geometry"/>
                </mxCell>
            </root>
        </mxGraphModel>
    </diagram>
    <diagram id="2QYLpACKdUXMrDE0_cD8" name="Page-2">
        <mxGraphModel grid="1" gridSize="10" guides="1" tooltips="1" connect="1" arrows="1" page="1" fold="1" pageScale="1" pageWidth="827" pageHeight="1169" math="0" shadow="0">
            <root>
                <mxCell id="qqgfnfUDWsh_pfd9i19x-0"/>
                <mxCell id="qqgfnfUDWsh_pfd9i19x-1" parent="qqgfnfUDWsh_pfd9i19x-0"/>
                <mxCell id="qqgfnfUDWsh_pfd9i19x-2" value="Imm&lt;font color=&quot;#000000&quot;&gt;Implementation Constraints Plan&lt;/font&gt;" style="shape=table;childLayout=tableLayout;rowLines=0;columnLines=0;startSize=40;html=1;whiteSpace=wrap;collapsible=0;recursiveResize=0;expand=0;pointerEvents=0;fontStyle=1;align=center;fillColor=#FFFFFF;gradientColor=#ffffff;fontSize=11;fontColor=#FFFFFF;" parent="qqgfnfUDWsh_pfd9i19x-1" vertex="1">
                    <mxGeometry x="80" y="170" width="600" height="640" as="geometry"/>
                </mxCell>
                <mxCell id="qqgfnfUDWsh_pfd9i19x-3" value="" style="swimlane;horizontal=0;points=[[0,0.5],[1,0.5]];portConstraint=eastwest;startSize=20;html=1;whiteSpace=wrap;collapsible=0;recursiveResize=0;expand=0;pointerEvents=0;fontStyle=1" parent="qqgfnfUDWsh_pfd9i19x-2" vertex="1">
                    <mxGeometry y="40" width="600" height="160" as="geometry"/>
                </mxCell>
                <mxCell id="qqgfnfUDWsh_pfd9i19x-4" value="&lt;font style=&quot;font-size: 12px&quot;&gt;Constraint Category&lt;/font&gt;" style="swimlane;connectable=0;startSize=40;html=1;whiteSpace=wrap;collapsible=0;recursiveResize=0;expand=0;pointerEvents=0;fontSize=14;" parent="qqgfnfUDWsh_pfd9i19x-3" vertex="1">
                    <mxGeometry x="20" width="194" height="160" as="geometry"/>
                </mxCell>
                <mxCell id="qqgfnfUDWsh_pfd9i19x-15" value="Hardware and Software Platforms" style="text;html=1;align=center;verticalAlign=middle;resizable=0;points=[];autosize=1;fontSize=11;" parent="qqgfnfUDWsh_pfd9i19x-4" vertex="1">
                    <mxGeometry y="80" width="180" height="20" as="geometry"/>
                </mxCell>
                <mxCell id="qqgfnfUDWsh_pfd9i19x-5" value="Implementation Constraint" style="swimlane;connectable=0;startSize=40;html=1;whiteSpace=wrap;collapsible=0;recursiveResize=0;expand=0;pointerEvents=0;" parent="qqgfnfUDWsh_pfd9i19x-3" vertex="1">
                    <mxGeometry x="214" width="192" height="160" as="geometry"/>
                </mxCell>
                <mxCell id="qqgfnfUDWsh_pfd9i19x-6" value="Solution" style="swimlane;connectable=0;startSize=40;html=1;whiteSpace=wrap;collapsible=0;recursiveResize=0;expand=0;pointerEvents=0;" parent="qqgfnfUDWsh_pfd9i19x-3" vertex="1">
                    <mxGeometry x="406" width="194" height="160" as="geometry"/>
                </mxCell>
                <mxCell id="tZw0s1GJbcpgkkYI7LAd-3" value="&lt;span&gt;Project held on GitHub Repo for portable access if required&lt;/span&gt;" style="text;html=1;strokeColor=none;fillColor=none;align=center;verticalAlign=middle;whiteSpace=wrap;rounded=0;" parent="qqgfnfUDWsh_pfd9i19x-6" vertex="1">
                    <mxGeometry x="24" y="40" width="146" height="100" as="geometry"/>
                </mxCell>
                <mxCell id="qqgfnfUDWsh_pfd9i19x-7" value="" style="swimlane;horizontal=0;points=[[0,0.5],[1,0.5]];portConstraint=eastwest;startSize=20;html=1;whiteSpace=wrap;collapsible=0;recursiveResize=0;expand=0;pointerEvents=0;" parent="qqgfnfUDWsh_pfd9i19x-2" vertex="1">
                    <mxGeometry y="200" width="600" height="93" as="geometry"/>
                </mxCell>
                <mxCell id="qqgfnfUDWsh_pfd9i19x-8" value="" style="swimlane;connectable=0;startSize=0;html=1;whiteSpace=wrap;collapsible=0;recursiveResize=0;expand=0;pointerEvents=0;" parent="qqgfnfUDWsh_pfd9i19x-7" vertex="1">
                    <mxGeometry x="20" width="194" height="93" as="geometry"/>
                </mxCell>
                <mxCell id="tZw0s1GJbcpgkkYI7LAd-4" value="Performance requirements" style="text;html=1;strokeColor=none;fillColor=none;align=center;verticalAlign=middle;whiteSpace=wrap;rounded=0;" parent="qqgfnfUDWsh_pfd9i19x-8" vertex="1">
                    <mxGeometry x="10" y="16.5" width="120" height="20" as="geometry"/>
                </mxCell>
                <mxCell id="qqgfnfUDWsh_pfd9i19x-9" value="" style="swimlane;connectable=0;startSize=0;html=1;whiteSpace=wrap;collapsible=0;recursiveResize=0;expand=0;pointerEvents=0;" parent="qqgfnfUDWsh_pfd9i19x-7" vertex="1">
                    <mxGeometry x="214" width="192" height="93" as="geometry"/>
                </mxCell>
                <mxCell id="tZw0s1GJbcpgkkYI7LAd-7" value="System will accomplish functions under current conditions but under duress and heavier demand could have implications on load time" style="text;html=1;strokeColor=none;fillColor=none;align=center;verticalAlign=middle;whiteSpace=wrap;rounded=0;" parent="qqgfnfUDWsh_pfd9i19x-9" vertex="1">
                    <mxGeometry x="10" y="16.5" width="170" height="53.5" as="geometry"/>
                </mxCell>
                <mxCell id="qqgfnfUDWsh_pfd9i19x-10" value="" style="swimlane;connectable=0;startSize=0;html=1;whiteSpace=wrap;collapsible=0;recursiveResize=0;expand=0;pointerEvents=0;" parent="qqgfnfUDWsh_pfd9i19x-7" vertex="1">
                    <mxGeometry x="406" width="194" height="93" as="geometry"/>
                </mxCell>
                <mxCell id="tZw0s1GJbcpgkkYI7LAd-9" value="This is a signage where a more advanced understanding of the SD process in this language would be necessary&amp;nbsp; to prepare for such outcomes&amp;nbsp;" style="text;html=1;strokeColor=none;fillColor=none;align=center;verticalAlign=middle;whiteSpace=wrap;rounded=0;" parent="qqgfnfUDWsh_pfd9i19x-10" vertex="1">
                    <mxGeometry x="4" y="3" width="186" height="87" as="geometry"/>
                </mxCell>
                <mxCell id="qqgfnfUDWsh_pfd9i19x-11" value="" style="swimlane;horizontal=0;points=[[0,0.5],[1,0.5]];portConstraint=eastwest;startSize=20;html=1;whiteSpace=wrap;collapsible=0;recursiveResize=0;expand=0;pointerEvents=0;" parent="qqgfnfUDWsh_pfd9i19x-2" vertex="1">
                    <mxGeometry y="293" width="600" height="107" as="geometry"/>
                </mxCell>
                <mxCell id="qqgfnfUDWsh_pfd9i19x-12" value="" style="swimlane;connectable=0;startSize=0;html=1;whiteSpace=wrap;collapsible=0;recursiveResize=0;expand=0;pointerEvents=0;" parent="qqgfnfUDWsh_pfd9i19x-11" vertex="1">
                    <mxGeometry x="20" width="194" height="107" as="geometry"/>
                </mxCell>
                <mxCell id="tZw0s1GJbcpgkkYI7LAd-10" value="Persistent storage and transactions" style="text;html=1;strokeColor=none;fillColor=none;align=center;verticalAlign=middle;whiteSpace=wrap;rounded=0;" parent="qqgfnfUDWsh_pfd9i19x-12" vertex="1">
                    <mxGeometry x="10" y="10" width="170" height="40" as="geometry"/>
                </mxCell>
                <mxCell id="qqgfnfUDWsh_pfd9i19x-13" value="" style="swimlane;connectable=0;startSize=0;html=1;whiteSpace=wrap;collapsible=0;recursiveResize=0;expand=0;pointerEvents=0;" parent="qqgfnfUDWsh_pfd9i19x-11" vertex="1">
                    <mxGeometry x="214" width="192" height="107" as="geometry"/>
                </mxCell>
                <mxCell id="tZw0s1GJbcpgkkYI7LAd-42" value="May not have tools in place to hold valuable user/customer data" style="text;html=1;strokeColor=none;fillColor=none;align=center;verticalAlign=middle;whiteSpace=wrap;rounded=0;" parent="qqgfnfUDWsh_pfd9i19x-13" vertex="1">
                    <mxGeometry x="6" y="10" width="180" height="60" as="geometry"/>
                </mxCell>
                <mxCell id="qqgfnfUDWsh_pfd9i19x-14" value="" style="swimlane;connectable=0;startSize=0;html=1;whiteSpace=wrap;collapsible=0;recursiveResize=0;expand=0;pointerEvents=0;" parent="qqgfnfUDWsh_pfd9i19x-11" vertex="1">
                    <mxGeometry x="406" width="194" height="107" as="geometry"/>
                </mxCell>
                <mxCell id="tZw0s1GJbcpgkkYI7LAd-36" value="" style="swimlane;horizontal=0;points=[[0,0.5],[1,0.5]];portConstraint=eastwest;startSize=20;html=1;whiteSpace=wrap;collapsible=0;recursiveResize=0;expand=0;pointerEvents=0;" parent="qqgfnfUDWsh_pfd9i19x-2" vertex="1">
                    <mxGeometry y="400" width="600" height="70" as="geometry"/>
                </mxCell>
                <mxCell id="tZw0s1GJbcpgkkYI7LAd-37" value="" style="swimlane;connectable=0;startSize=0;html=1;whiteSpace=wrap;collapsible=0;recursiveResize=0;expand=0;pointerEvents=0;" parent="tZw0s1GJbcpgkkYI7LAd-36" vertex="1">
                    <mxGeometry x="20" width="194" height="70" as="geometry"/>
                </mxCell>
                <mxCell id="tZw0s1GJbcpgkkYI7LAd-38" value="Usability" style="text;html=1;strokeColor=none;fillColor=none;align=center;verticalAlign=middle;whiteSpace=wrap;rounded=0;" parent="tZw0s1GJbcpgkkYI7LAd-37" vertex="1">
                    <mxGeometry x="10" y="10" width="170" height="40" as="geometry"/>
                </mxCell>
                <mxCell id="tZw0s1GJbcpgkkYI7LAd-39" value="&lt;span style=&quot;color: rgb(240 , 240 , 240) ; font-family: &amp;#34;helvetica&amp;#34; ; font-size: 12px ; font-style: normal ; font-weight: 400 ; letter-spacing: normal ; text-align: center ; text-indent: 0px ; text-transform: none ; word-spacing: 0px ; background-color: rgb(42 , 42 , 42) ; display: inline ; float: none&quot;&gt;&lt;br&gt;&lt;br&gt;&lt;br&gt;&lt;br&gt;no clear path for user to fulfil journey or usage requirements&lt;/span&gt;" style="swimlane;connectable=0;startSize=0;html=1;whiteSpace=wrap;collapsible=0;recursiveResize=0;expand=0;pointerEvents=0;" parent="tZw0s1GJbcpgkkYI7LAd-36" vertex="1">
                    <mxGeometry x="214" width="192" height="70" as="geometry"/>
                </mxCell>
                <mxCell id="tZw0s1GJbcpgkkYI7LAd-40" value="" style="swimlane;connectable=0;startSize=0;html=1;whiteSpace=wrap;collapsible=0;recursiveResize=0;expand=0;pointerEvents=0;" parent="tZw0s1GJbcpgkkYI7LAd-36" vertex="1">
                    <mxGeometry x="406" width="194" height="70" as="geometry"/>
                </mxCell>
                <mxCell id="mphfI4BGU7wp1cogcEjh-6" value="&lt;span&gt;implement UI features UX best practices&amp;nbsp;&lt;/span&gt;" style="text;html=1;strokeColor=none;fillColor=none;align=center;verticalAlign=middle;whiteSpace=wrap;rounded=0;" vertex="1" parent="tZw0s1GJbcpgkkYI7LAd-40">
                    <mxGeometry y="5" width="190" height="65" as="geometry"/>
                </mxCell>
                <mxCell id="tZw0s1GJbcpgkkYI7LAd-44" value="" style="swimlane;horizontal=0;points=[[0,0.5],[1,0.5]];portConstraint=eastwest;startSize=20;html=1;whiteSpace=wrap;collapsible=0;recursiveResize=0;expand=0;pointerEvents=0;" parent="qqgfnfUDWsh_pfd9i19x-2" vertex="1">
                    <mxGeometry y="470" width="600" height="60" as="geometry"/>
                </mxCell>
                <mxCell id="tZw0s1GJbcpgkkYI7LAd-45" value="" style="swimlane;connectable=0;startSize=0;html=1;whiteSpace=wrap;collapsible=0;recursiveResize=0;expand=0;pointerEvents=0;" parent="tZw0s1GJbcpgkkYI7LAd-44" vertex="1">
                    <mxGeometry x="20" width="194" height="60" as="geometry"/>
                </mxCell>
                <mxCell id="tZw0s1GJbcpgkkYI7LAd-46" value="Budgets" style="text;html=1;strokeColor=none;fillColor=none;align=center;verticalAlign=middle;whiteSpace=wrap;rounded=0;" parent="tZw0s1GJbcpgkkYI7LAd-45" vertex="1">
                    <mxGeometry x="10" y="10" width="170" height="40" as="geometry"/>
                </mxCell>
                <mxCell id="tZw0s1GJbcpgkkYI7LAd-47" value="" style="swimlane;connectable=0;startSize=0;html=1;whiteSpace=wrap;collapsible=0;recursiveResize=0;expand=0;pointerEvents=0;" parent="tZw0s1GJbcpgkkYI7LAd-44" vertex="1">
                    <mxGeometry x="214" width="192" height="60" as="geometry"/>
                </mxCell>
                <mxCell id="mphfI4BGU7wp1cogcEjh-8" value="No funds&amp;nbsp;" style="text;html=1;align=center;verticalAlign=middle;resizable=0;points=[];autosize=1;" vertex="1" parent="tZw0s1GJbcpgkkYI7LAd-47">
                    <mxGeometry x="76" y="20" width="70" height="20" as="geometry"/>
                </mxCell>
                <mxCell id="tZw0s1GJbcpgkkYI7LAd-48" value="" style="swimlane;connectable=0;startSize=0;html=1;whiteSpace=wrap;collapsible=0;recursiveResize=0;expand=0;pointerEvents=0;" parent="tZw0s1GJbcpgkkYI7LAd-44" vertex="1">
                    <mxGeometry x="406" width="194" height="60" as="geometry"/>
                </mxCell>
                <mxCell id="mphfI4BGU7wp1cogcEjh-9" value="use free software where possible" style="text;html=1;align=center;verticalAlign=middle;resizable=0;points=[];autosize=1;" vertex="1" parent="tZw0s1GJbcpgkkYI7LAd-48">
                    <mxGeometry x="4" y="20" width="190" height="20" as="geometry"/>
                </mxCell>
                <mxCell id="tZw0s1GJbcpgkkYI7LAd-50" value="" style="swimlane;horizontal=0;points=[[0,0.5],[1,0.5]];portConstraint=eastwest;startSize=20;html=1;whiteSpace=wrap;collapsible=0;recursiveResize=0;expand=0;pointerEvents=0;" parent="qqgfnfUDWsh_pfd9i19x-2" vertex="1">
                    <mxGeometry y="530" width="600" height="110" as="geometry"/>
                </mxCell>
                <mxCell id="tZw0s1GJbcpgkkYI7LAd-51" value="" style="swimlane;connectable=0;startSize=0;html=1;whiteSpace=wrap;collapsible=0;recursiveResize=0;expand=0;pointerEvents=0;" parent="tZw0s1GJbcpgkkYI7LAd-50" vertex="1">
                    <mxGeometry x="20" width="194" height="110" as="geometry"/>
                </mxCell>
                <mxCell id="tZw0s1GJbcpgkkYI7LAd-52" value="Time Limitations" style="text;html=1;strokeColor=none;fillColor=none;align=center;verticalAlign=middle;whiteSpace=wrap;rounded=0;" parent="tZw0s1GJbcpgkkYI7LAd-51" vertex="1">
                    <mxGeometry x="10" y="10" width="170" height="40" as="geometry"/>
                </mxCell>
                <mxCell id="tZw0s1GJbcpgkkYI7LAd-53" value="" style="swimlane;connectable=0;startSize=0;html=1;whiteSpace=wrap;collapsible=0;recursiveResize=0;expand=0;pointerEvents=0;" parent="tZw0s1GJbcpgkkYI7LAd-50" vertex="1">
                    <mxGeometry x="214" width="192" height="110" as="geometry"/>
                </mxCell>
                <mxCell id="tZw0s1GJbcpgkkYI7LAd-56" value="&lt;span&gt;short time span limits project potential.&amp;nbsp; 5 days overall means extensions are harder to implement than the basic functional requirements.&amp;nbsp; This could efffect perception and overall success of app.&lt;/span&gt;" style="text;html=1;strokeColor=none;fillColor=none;align=center;verticalAlign=middle;whiteSpace=wrap;rounded=0;" parent="tZw0s1GJbcpgkkYI7LAd-53" vertex="1">
                    <mxGeometry width="190" height="110" as="geometry"/>
                </mxCell>
                <mxCell id="tZw0s1GJbcpgkkYI7LAd-54" value="" style="swimlane;connectable=0;startSize=0;html=1;whiteSpace=wrap;collapsible=0;recursiveResize=0;expand=0;pointerEvents=0;" parent="tZw0s1GJbcpgkkYI7LAd-50" vertex="1">
                    <mxGeometry x="406" width="194" height="110" as="geometry"/>
                </mxCell>
                <mxCell id="tZw0s1GJbcpgkkYI7LAd-57" value="Prepare and apply best skillset bearing in mind the scope and expectations of the project. additional featues can be realised overtime." style="text;html=1;strokeColor=none;fillColor=none;align=center;verticalAlign=middle;whiteSpace=wrap;rounded=0;" parent="tZw0s1GJbcpgkkYI7LAd-54" vertex="1">
                    <mxGeometry x="-6" y="5" width="190" height="100" as="geometry"/>
                </mxCell>
                <mxCell id="mphfI4BGU7wp1cogcEjh-0" value="Computer may malfunction." style="text;html=1;align=center;verticalAlign=middle;resizable=0;points=[];autosize=1;" vertex="1" parent="qqgfnfUDWsh_pfd9i19x-1">
                    <mxGeometry x="320" y="280" width="160" height="20" as="geometry"/>
                </mxCell>
                <mxCell id="mphfI4BGU7wp1cogcEjh-7" value="Utilise DB system" style="text;html=1;align=center;verticalAlign=middle;resizable=0;points=[];autosize=1;" vertex="1" parent="qqgfnfUDWsh_pfd9i19x-1">
                    <mxGeometry x="515" y="500" width="110" height="20" as="geometry"/>
                </mxCell>
            </root>
        </mxGraphModel>
    </diagram>
    <diagram id="D1BVGPi_UiD6fO1uFJRp" name="Page-3">
        <mxGraphModel dx="1383" dy="677" grid="1" gridSize="10" guides="1" tooltips="1" connect="1" arrows="1" fold="1" page="1" pageScale="1" pageWidth="827" pageHeight="1169" math="0" shadow="0">
            <root>
                <mxCell id="mXFCMK3577yhVZdCGQx_-0"/>
                <mxCell id="mXFCMK3577yhVZdCGQx_-1" parent="mXFCMK3577yhVZdCGQx_-0"/>
                <mxCell id="mXFCMK3577yhVZdCGQx_-3" value="HomePage" style="rounded=1;whiteSpace=wrap;html=1;fillColor=#FFFFFF;gradientColor=#ffffff;fontSize=14;fontColor=#000000;" parent="mXFCMK3577yhVZdCGQx_-1" vertex="1">
                    <mxGeometry x="50" y="80" width="120" height="60" as="geometry"/>
                </mxCell>
                <mxCell id="mXFCMK3577yhVZdCGQx_-6" value="" style="edgeStyle=orthogonalEdgeStyle;rounded=0;orthogonalLoop=1;jettySize=auto;html=1;fontSize=14;fontColor=#000000;" parent="mXFCMK3577yhVZdCGQx_-1" source="mXFCMK3577yhVZdCGQx_-4" target="mXFCMK3577yhVZdCGQx_-5" edge="1">
                    <mxGeometry relative="1" as="geometry">
                        <Array as="points">
                            <mxPoint x="110" y="160"/>
                            <mxPoint x="310" y="160"/>
                        </Array>
                    </mxGeometry>
                </mxCell>
                <mxCell id="mXFCMK3577yhVZdCGQx_-4" value="Register Animal" style="rounded=1;whiteSpace=wrap;html=1;fillColor=#FFFFFF;gradientColor=#ffffff;fontSize=14;fontColor=#000000;" parent="mXFCMK3577yhVZdCGQx_-1" vertex="1">
                    <mxGeometry x="50" y="180" width="120" height="60" as="geometry"/>
                </mxCell>
                <mxCell id="mXFCMK3577yhVZdCGQx_-9" value="" style="edgeStyle=orthogonalEdgeStyle;rounded=0;orthogonalLoop=1;jettySize=auto;html=1;fontSize=14;fontColor=#000000;" parent="mXFCMK3577yhVZdCGQx_-1" source="mXFCMK3577yhVZdCGQx_-5" target="mXFCMK3577yhVZdCGQx_-8" edge="1">
                    <mxGeometry relative="1" as="geometry">
                        <Array as="points">
                            <mxPoint x="310" y="160"/>
                            <mxPoint x="510" y="160"/>
                        </Array>
                    </mxGeometry>
                </mxCell>
                <mxCell id="mXFCMK3577yhVZdCGQx_-5" value="Practices" style="rounded=1;whiteSpace=wrap;html=1;fillColor=#FFFFFF;gradientColor=#ffffff;fontSize=14;fontColor=#000000;" parent="mXFCMK3577yhVZdCGQx_-1" vertex="1">
                    <mxGeometry x="250" y="180" width="120" height="60" as="geometry"/>
                </mxCell>
                <mxCell id="mXFCMK3577yhVZdCGQx_-8" value="Animals" style="rounded=1;whiteSpace=wrap;html=1;fillColor=#FFFFFF;gradientColor=#ffffff;fontSize=14;fontColor=#000000;" parent="mXFCMK3577yhVZdCGQx_-1" vertex="1">
                    <mxGeometry x="450" y="180" width="120" height="60" as="geometry"/>
                </mxCell>
            </root>
        </mxGraphModel>
    </diagram>
    <diagram id="4ImPXXB2FaHmP09R5G2a" name="Page-4">
        <mxGraphModel dx="1383" dy="677" grid="1" gridSize="10" guides="1" tooltips="1" connect="1" arrows="1" fold="1" page="1" pageScale="1" pageWidth="827" pageHeight="1169" math="0" shadow="0">
            <root>
                <mxCell id="To_y381fhqcSjSXbk6pD-0"/>
                <mxCell id="To_y381fhqcSjSXbk6pD-1" parent="To_y381fhqcSjSXbk6pD-0"/>
                <mxCell id="To_y381fhqcSjSXbk6pD-2" value="" style="whiteSpace=wrap;html=1;aspect=fixed;" parent="To_y381fhqcSjSXbk6pD-1" vertex="1">
                    <mxGeometry x="50" y="50" width="710" height="710" as="geometry"/>
                </mxCell>
                <mxCell id="To_y381fhqcSjSXbk6pD-3" value="" style="rounded=0;whiteSpace=wrap;html=1;rotation=-90;" parent="To_y381fhqcSjSXbk6pD-1" vertex="1">
                    <mxGeometry x="32.5" y="207.5" width="200" height="110" as="geometry"/>
                </mxCell>
                <mxCell id="To_y381fhqcSjSXbk6pD-6" value="" style="whiteSpace=wrap;html=1;aspect=fixed;" parent="To_y381fhqcSjSXbk6pD-1" vertex="1">
                    <mxGeometry x="210" y="170" width="510" height="510" as="geometry"/>
                </mxCell>
                <mxCell id="To_y381fhqcSjSXbk6pD-10" value="" style="endArrow=none;html=1;entryX=0;entryY=1;entryDx=0;entryDy=0;" parent="To_y381fhqcSjSXbk6pD-1" target="To_y381fhqcSjSXbk6pD-6" edge="1">
                    <mxGeometry width="50" height="50" relative="1" as="geometry">
                        <mxPoint x="720" y="170" as="sourcePoint"/>
                        <mxPoint x="430" y="380" as="targetPoint"/>
                        <Array as="points"/>
                    </mxGeometry>
                </mxCell>
                <mxCell id="To_y381fhqcSjSXbk6pD-12" value="" style="endArrow=none;html=1;entryX=0;entryY=0;entryDx=0;entryDy=0;exitX=1;exitY=1;exitDx=0;exitDy=0;" parent="To_y381fhqcSjSXbk6pD-1" source="To_y381fhqcSjSXbk6pD-6" target="To_y381fhqcSjSXbk6pD-6" edge="1">
                    <mxGeometry width="50" height="50" relative="1" as="geometry">
                        <mxPoint x="380" y="430" as="sourcePoint"/>
                        <mxPoint x="430" y="380" as="targetPoint"/>
                    </mxGeometry>
                </mxCell>
                <mxCell id="To_y381fhqcSjSXbk6pD-13" value="" style="whiteSpace=wrap;html=1;aspect=fixed;" parent="To_y381fhqcSjSXbk6pD-1" vertex="1">
                    <mxGeometry x="320" y="280" width="290" height="290" as="geometry"/>
                </mxCell>
                <mxCell id="To_y381fhqcSjSXbk6pD-14" value="" style="rounded=1;whiteSpace=wrap;html=1;" parent="To_y381fhqcSjSXbk6pD-1" vertex="1">
                    <mxGeometry x="354" y="317.5" width="216" height="202.5" as="geometry"/>
                </mxCell>
                <mxCell id="To_y381fhqcSjSXbk6pD-16" value="" style="rounded=0;whiteSpace=wrap;html=1;" parent="To_y381fhqcSjSXbk6pD-1" vertex="1">
                    <mxGeometry x="380" y="490" width="80" height="20" as="geometry"/>
                </mxCell>
                <mxCell id="To_y381fhqcSjSXbk6pD-17" value="Submit" style="text;html=1;strokeColor=none;fillColor=none;align=center;verticalAlign=middle;whiteSpace=wrap;rounded=0;" parent="To_y381fhqcSjSXbk6pD-1" vertex="1">
                    <mxGeometry x="394" y="490" width="40" height="20" as="geometry"/>
                </mxCell>
                <mxCell id="To_y381fhqcSjSXbk6pD-18" value="" style="rounded=0;whiteSpace=wrap;html=1;" parent="To_y381fhqcSjSXbk6pD-1" vertex="1">
                    <mxGeometry x="90" y="190" width="60" height="20" as="geometry"/>
                </mxCell>
                <mxCell id="To_y381fhqcSjSXbk6pD-19" value="" style="rounded=0;whiteSpace=wrap;html=1;" parent="To_y381fhqcSjSXbk6pD-1" vertex="1">
                    <mxGeometry x="90" y="220" width="60" height="20" as="geometry"/>
                </mxCell>
                <mxCell id="To_y381fhqcSjSXbk6pD-20" value="" style="rounded=0;whiteSpace=wrap;html=1;" parent="To_y381fhqcSjSXbk6pD-1" vertex="1">
                    <mxGeometry x="90" y="252.5" width="60" height="20" as="geometry"/>
                </mxCell>
                <mxCell id="To_y381fhqcSjSXbk6pD-21" value="" style="rounded=0;whiteSpace=wrap;html=1;" parent="To_y381fhqcSjSXbk6pD-1" vertex="1">
                    <mxGeometry x="90" y="290" width="60" height="20" as="geometry"/>
                </mxCell>
                <mxCell id="To_y381fhqcSjSXbk6pD-22" value="Name:&lt;br&gt;Type:&lt;br&gt;Notes:&lt;br&gt;List of possible owners:&lt;br&gt;Notes:" style="text;html=1;strokeColor=none;fillColor=none;align=center;verticalAlign=middle;whiteSpace=wrap;rounded=0;" parent="To_y381fhqcSjSXbk6pD-1" vertex="1">
                    <mxGeometry x="370" y="340" width="150" height="140" as="geometry"/>
                </mxCell>
                <mxCell id="To_y381fhqcSjSXbk6pD-23" value="" style="rounded=0;whiteSpace=wrap;html=1;" parent="To_y381fhqcSjSXbk6pD-1" vertex="1">
                    <mxGeometry x="72.5" y="70" width="277.5" height="60" as="geometry"/>
                </mxCell>
                <mxCell id="To_y381fhqcSjSXbk6pD-27" value="" style="endArrow=none;html=1;exitX=0;exitY=0;exitDx=0;exitDy=0;entryX=1;entryY=1;entryDx=0;entryDy=0;" parent="To_y381fhqcSjSXbk6pD-1" source="To_y381fhqcSjSXbk6pD-23" target="To_y381fhqcSjSXbk6pD-23" edge="1">
                    <mxGeometry width="50" height="50" relative="1" as="geometry">
                        <mxPoint x="390" y="410" as="sourcePoint"/>
                        <mxPoint x="440" y="360" as="targetPoint"/>
                    </mxGeometry>
                </mxCell>
                <mxCell id="To_y381fhqcSjSXbk6pD-28" value="" style="endArrow=none;html=1;exitX=0;exitY=1;exitDx=0;exitDy=0;entryX=1;entryY=0;entryDx=0;entryDy=0;" parent="To_y381fhqcSjSXbk6pD-1" source="To_y381fhqcSjSXbk6pD-23" target="To_y381fhqcSjSXbk6pD-23" edge="1">
                    <mxGeometry width="50" height="50" relative="1" as="geometry">
                        <mxPoint x="82.5" y="80" as="sourcePoint"/>
                        <mxPoint x="359.9999999999998" y="140" as="targetPoint"/>
                    </mxGeometry>
                </mxCell>
            </root>
        </mxGraphModel>
    </diagram>
</mxfile>